<svg id="Layer_1" data-name="Layer 1" xmlns="http://www.w3.org/2000/svg" viewBox="0 0 916.25 537.03"><defs><style>.cls-1{fill:#ecc68b;}.cls-2{fill:#47340e;}.cls-3{fill:#e0a953;}</style></defs><path class="cls-1" d="M913.32,652.22c-5.77-.1-15,.4-15-6.51,0-9.69,4.21-16.93,13-21.44a56.26,56.26,0,0,1,7.85-3.41A9.93,9.93,0,0,0,926,613.3c.81-3.42,1.26-6.94,1.73-10.43a37.37,37.37,0,0,0,.51-6.75q-.28-6.5-1-13c-.64-5.56-1.27-11.14-2.31-16.64-.94-5-2.36-9.87-3.72-14.77-1-3.69-3.41-6.56-6.48-9.39a9.08,9.08,0,0,0-.78,2.12c-.42,7-2.68,13.5-5.5,19.82-4.33,9.73-8.66,19.47-13.8,28.83-6,10.87-11.9,21.74-18,32.54-3,5.32-6.06,10.61-9.47,15.67a56.19,56.19,0,0,1-6.93,7.74c-1.68,1.71-4.17,1.47-6.29,1.63a155,155,0,0,1-25.4,0c-5.93-.54-20.11-.22-20.17-8.39,0-5.77.85-11,5.27-15.23,3.42-3.25,7.85-5.25,12.32-6.84,7.41-2.65,14-4.22,19.06-10.62a175.93,175.93,0,0,0,15.42-24.17c1.48-2.71,2.74-5.54,4-8.33a34,34,0,0,0,2.82-12.37A32.38,32.38,0,0,0,865.71,552a58.75,58.75,0,0,0-6.46-13.5c-6.79-10.38-14.32-20.26-22-30.05s-15.54-19.11-23.1-28.83c-7.67-9.87-15.05-20-22.54-30-5.42-7.23-10.87-14.42-16.19-21.72-4.24-5.82-8.26-11.8-12.45-17.66-7.73-10.83-21.13-26.07-36.17-24.11a75.68,75.68,0,0,0-16.17,3.57c-6.85,2.48-13.66,5.08-20.35,7.95-12.1,5.22-24,10.82-36.16,16-7.71,3.29-15.59,6.2-23.47,9.07-9.79,3.58-19.62,7.06-29.52,10.35-5.24,1.74-10.66,3-16,4.51-13.54,3.94-26.5,8.75-40.42,11.49a20.4,20.4,0,0,0-5.52,1.61c-4.48,2.33-5,9.64-5.92,14.05-4.54,22.23-7.71,44.7-11.43,67.06-1.85,11.19-3.85,22.35-6.22,33.44-2.28,10.69-4.18,22.44-8.32,32.62-.87,2.11-2.05,4-2.74,6.27-1.29,4.31-3.57,8.17-5.44,12.21-4,8.63-9.37,16.45-14.35,24.51a6.84,6.84,0,0,1-5.52,3.5c-4.12.48-8.22.95-12.39,1-3.67.07-7.33.59-11,.92-.28,0-.55.06-.83.07l-15.77.59c-5.45.18-10.89.51-16.33.47a65.37,65.37,0,0,1-9.32-1.07,4.74,4.74,0,0,1-4.12-4.23c-.61-3.75-1.21-7.52-.11-11.31a10.25,10.25,0,0,1,2.55-4.73,28.32,28.32,0,0,1,10.53-6.39c2.86-1,5.79-1.89,8.74-2.65,3.71-1,6.45-2.83,8.06-6.41,8.73-19.39,12-41.86,13.46-63,1.7-24.9,1.56-53.71-8-77.19-2.65-6.49-4.93-13.11-7.52-19.61-2.92-7.35-5.89-14.68-9-21.95-2.52-5.85-5.22-11.62-8-17.36q-6.94-14.4-12.58-29.34c-2.16-5.7-4.61-11.3-6.49-17.08-3.78-11.66-7.33-23.4-10.85-35.14-2.21-7.39-4.19-14.85-6.28-22.28-2.47-8.73-4.88-17.48-7.45-26.18a50.85,50.85,0,0,0-7.18-14.68c-7-10.08-18.62-17.2-30.51-20.49-14.68-4.07-30.06-3.19-45.14-3.19-12.75,0-33.28.86-42.72-9.11a20.78,20.78,0,0,1-4.44-7.15,4.56,4.56,0,0,0-2.06-2.42c-8.11-5-15.3-12.9-18.81-21.71-1.76-4.45-2.45-10.1,1.82-13.33A59,59,0,0,1,240,182.26c8-3.44,16.15-6.77,24.27-10,4.44-1.79,9.08-3.15,13.43-5.13,5.8-2.64,10.67-6.42,13.42-12.37,3.87-8.38,8.19-14.2,15.74-19.84,11.07-8.29,24.41-15.86,38.22-18.4,6.8-1.24,13.62-1.19,20.44-1,3.7.12,7.16,1.64,10.62,2.94,10.44,3.9,20,9.44,29.33,15.32,6.06,3.82,11.85,8,17.71,12.14a59.81,59.81,0,0,1,5.32,4.33c6.82,6.11,13.43,12.43,20.62,18.15a94.69,94.69,0,0,1,9.5,8.74c4.09,4.26,8.86,7.68,13.48,11.29q9,7,18,14a93.4,93.4,0,0,0,16,10.24c7.26,3.62,14.53,7.26,22,10.48,9,3.86,18,7.64,27.24,10.8,9,3.08,18.22,5.37,27.38,7.92C625,253.66,669,259,713,260.82c44.64,1.82,89.43,1,133.93,5.39,32.9,3.23,64.84,11,97.26,16.75,6.62,1.17,13.28,2.1,19.92,3.12,46.63,7.12,93.47,11.84,140.54,15.1,6.55.45,37.19-2.44,36,8.59-.3,2.7-2.19,5-4.11,6.91-12.28,12.51-28.85,20.31-45.94,24.83-21.1,5.58-43,7.4-64.8,7.47-21.23.06-42.8-.52-63.7-4.2-7.44-1.31-14.86-2.73-22.26-4.21-5.6-1.12-11.17-2.42-16.75-3.62a3.56,3.56,0,0,0-.8,0c-.06.16-.22.37-.17.46,2.85,5.09,3.81,10.77,5,16.31,3.9,18.1,4.24,36.71,2.95,55.11-1.25,17.95-5,35.71-5.11,53.67a59.1,59.1,0,0,0,2.75,17.11,75,75,0,0,0,13.67,26c3.61,4.46,7.55,8.68,11.37,13s7.67,8.57,11.51,12.85a4.89,4.89,0,0,0,.37.41c5.08,4.25,5.17,9.87,4.45,15.7-.61,4.84-1.14,9.7-1.9,14.52-.69,4.38-1.63,8.72-2.49,13.07-1.33,6.75-2.74,13.49-4,20.25q-1.74,9.2-3.31,18.43c-.5,2.94-.66,5.94-1.25,8.86a158.1,158.1,0,0,1-4.85,19c-2,6-7,8.46-13,9.42a112.86,112.86,0,0,1-23.52,1.26Z" transform="translate(-224.41 -115.37)"/><path class="cls-2" d="M245.05,199.71c2.31-6,2.7-12.16,2.81-18.4a2,2,0,0,0-1-2L240,182.26a59,59,0,0,0-12.36,7.22c-4.27,3.23-3.58,8.88-1.82,13.33a40.85,40.85,0,0,0,3.65,6.95c1.08-.12,2.16-.27,3.23-.46C238.49,208.26,242.84,205.39,245.05,199.71Z" transform="translate(-224.41 -115.37)"/><path class="cls-2" d="M918.2,324c-.1.3-.39.7-.29,1,1.74,4,3.52,8,5.28,12l3.41.76q-2.93-6.19-5.83-12.39C920.28,324.28,919.73,323.38,918.2,324Z" transform="translate(-224.41 -115.37)"/><path class="cls-3" d="M362.35,127.55c-6.74,11.07-9.44,23.33-10.63,36a90.55,90.55,0,0,0,0,16.3q.76,8.81,1.87,17.57c.54,4.23,1.25,8.43,2.08,12.61a21.85,21.85,0,0,0,4.92,10.23c3.2,3.7,7.23,4.42,11.32,1.69a25.8,25.8,0,0,0,5.11-4.56,179.29,179.29,0,0,0,14.7-20.1c3.77-5.84,7.64-11.58,12.75-16.42a65.16,65.16,0,0,0,13.75-18.65c2.63-5.34,4.49-10.82,4.46-16.61-5.72-4-11.39-8.12-17.3-11.85-9.34-5.88-18.89-11.42-29.33-15.32-1.62-.61-3.24-1.26-4.89-1.8C367.45,119.63,364.8,123.54,362.35,127.55Z" transform="translate(-224.41 -115.37)"/><path class="cls-2" d="M908,535.39c-4.77-3.25-9.37-6.74-14.18-10-12.21-8.19-24.11-16.84-36-25.5-6.54-4.76-12.94-9.71-19.11-14.92s-11.87-10.67-17.7-16.12c-10.74-10-20.73-20.75-30.64-31.55-6.62-7.21-13-14.67-19.76-21.75a152.34,152.34,0,0,0-13-12.34c2,2.4,3.87,4.81,5.45,7,1.42,2,2.81,4,4.2,6,1.91,1.94,3.79,3.92,5.65,5.91,8.72,9.4,17,19.15,25.82,28.5,6.82,7.28,14,14.21,21.12,21.27a296.5,296.5,0,0,0,30.25,26c7.67,5.83,15.64,11.29,23.52,16.86,10.72,7.59,21.49,15.1,32.2,22.7,3.12,2.21,6.07,4.64,8.06,8,0-.34.07-.67.09-1a9.08,9.08,0,0,1,.78-2.12c.64.59,1.22,1.18,1.8,1.78a13.75,13.75,0,0,0-2.13-3.1A41.69,41.69,0,0,0,908,535.39Z" transform="translate(-224.41 -115.37)"/><path class="cls-2" d="M432.66,639.46c-1-6.07.66-11.44,5.65-15.32A24,24,0,0,1,450,618.91a11.69,11.69,0,0,0,6.86-3.23,29.39,29.39,0,0,0,7.11-10c2-5,4-10,5.83-15a69.32,69.32,0,0,0,4.11-18c.59-6.59.86-13.22,1.09-19.83.34-10.08.08-20.15-.53-30.22-.15-2.44-.34-4.88-.6-7.32a195,195,0,0,0-4.37-24.33q-1.21-5.16-2.7-10.26c-.48-1.63-.61-1.59-2.95-1.06.17,1.09.3,2.22.54,3.32,1.7,7.71,3.63,15.37,5.1,23.12,2.05,10.91,2.47,22,2.58,33.05.08,9.7-.61,19.4-.89,29.11a68,68,0,0,1-2.06,14c-1.79,7.44-4.79,14.46-7.68,21.53a28.94,28.94,0,0,1-6.65,9.61,7.66,7.66,0,0,1-4.57,2.38c-4.35.46-8.1,2.35-11.75,4.55-5.77,3.45-8.5,8.61-8.93,15.09-.29,4.2,1,8,2.62,11.79l3.1-.13a6,6,0,0,1-.39-.7A29.4,29.4,0,0,1,432.66,639.46Z" transform="translate(-224.41 -115.37)"/><path class="cls-2" d="M268.09,231.94a72.06,72.06,0,0,0,18.21-.78,43.5,43.5,0,0,0,6.89-2c.87-.28,1.47-.92,1.12-1.88s-1.18-1.07-2.07-.88a17.12,17.12,0,0,0-1.85.56,37.79,37.79,0,0,1-12.78,2.07L264.05,229a50.73,50.73,0,0,1-13.65-2c-1.55-.45-3.09-1-4.62-1.5a4.34,4.34,0,0,1,.87,1.45,23.79,23.79,0,0,0,1,2.19,46.26,46.26,0,0,0,10,2.11C261.09,231.55,264.61,231.55,268.09,231.94Z" transform="translate(-224.41 -115.37)"/><path class="cls-2" d="M309.29,165.76a9.65,9.65,0,0,0-1.79,2.69c-1,2-.89,4.22-.77,6.39a4.29,4.29,0,0,0,8.3,1.64,14.73,14.73,0,0,0,1.25-5.91,8.79,8.79,0,0,0-.74-3.37C314.26,164.31,311.74,163.39,309.29,165.76Z" transform="translate(-224.41 -115.37)"/><path class="cls-2" d="M476.45,212.68c1.52,1.07,2.39,1,2.9-.8a43,43,0,0,0,1.32-6.93c.34-3,.64-6.06.92-9.1l-2.57-2q-.4,4.33-1,8.64C477.53,205.88,477,209.27,476.45,212.68Z" transform="translate(-224.41 -115.37)"/><path class="cls-2" d="M916.8,638.11c-1-1-1.88-.94-2.55.12a6.5,6.5,0,0,0-.77,2c-.92,4-1.8,8-2.7,11.94l2.54,0h.14c.12-.62.23-1.24.36-1.85C914.74,646.35,915.77,642.33,916.8,638.11Z" transform="translate(-224.41 -115.37)"/><path class="cls-2" d="M909.1,636.84c-1.65-1.49-2.37-1.39-3.12.67a75.27,75.27,0,0,0-3.61,13.61,14.28,14.28,0,0,0,3,.72c.64-3.14,1.28-6.27,2-9.4C907.78,640.53,908.52,638.67,909.1,636.84Z" transform="translate(-224.41 -115.37)"/><path class="cls-2" d="M381.35,268.07c1.56-.48,1.71-1.13,1.08-2.9a2.45,2.45,0,0,0-.79-.12c-.63.13-1.23.37-1.85.52A37.64,37.64,0,0,1,369.56,267c.55.79,1.06,1.61,1.57,2.43,1.52,0,3.05-.05,4.57-.15A25.18,25.18,0,0,0,381.35,268.07Z" transform="translate(-224.41 -115.37)"/><path class="cls-2" d="M819.52,632.48c-1.5.25-1.87,1.33-2.2,2.35-.94,2.83-1.93,5.65-2.65,8.54-.43,1.71-.75,3.45-1,5.2a19.78,19.78,0,0,0,2.7.82,78.21,78.21,0,0,1,4.44-15.83Z" transform="translate(-224.41 -115.37)"/><path class="cls-2" d="M829.78,634.21c-2.56.17-2.69.17-3.47,1.88a69.41,69.41,0,0,0-4.65,14.13c1,.09,2,.17,2.89.23a60.69,60.69,0,0,1,4.75-14A10.81,10.81,0,0,0,829.78,634.21Z" transform="translate(-224.41 -115.37)"/><path class="cls-2" d="M448.45,633.1a1.61,1.61,0,0,0-2.78.28,7.83,7.83,0,0,0-1,2.23,75.71,75.71,0,0,0-2.16,11.25l2.92-.11c.48-4.3,1-8.58,2.91-12.59A3.27,3.27,0,0,0,448.45,633.1Z" transform="translate(-224.41 -115.37)"/><path class="cls-2" d="M455.24,632.13a10.66,10.66,0,0,0-1.76,2.42c-1,3.16-2.06,6.34-2.79,9.58a22.11,22.11,0,0,0-.38,2.44l2.83-.1A44.92,44.92,0,0,1,457,633.59Z" transform="translate(-224.41 -115.37)"/><path class="cls-2" d="M424.57,632.39c-1.83-1.07-2.56-.92-3.15,1.19-1.26,4.45-2.36,8.95-3.46,13.45.93.13,1.85.24,2.79.31,1.19-4.48,2.34-9,3.5-13.46C424.38,633.37,424.47,632.86,424.57,632.39Z" transform="translate(-224.41 -115.37)"/><path class="cls-2" d="M415.72,631.14a9.7,9.7,0,0,0-1.83,2.12,39.47,39.47,0,0,0-2.13,6.14c-.42,1.77-.73,3.57-1,5.37a4.63,4.63,0,0,0,2.67,1.52c.46-4.32,1.21-8.57,3.29-12.48C417.16,633,417.33,632.08,415.72,631.14Z" transform="translate(-224.41 -115.37)"/></svg>