<svg id="Layer_1" data-name="Layer 1" xmlns="http://www.w3.org/2000/svg" viewBox="0 0 916.27 547.21"><defs><style>.cls-1{fill:#ecc68b;}.cls-2{fill:#47340e;}.cls-3{fill:#e0a953;}</style></defs><path class="cls-1" d="M916.6,657.61a13.39,13.39,0,0,0-2.89-.55,59.25,59.25,0,0,1-12.1-1.19,5.13,5.13,0,0,1-4.54-4.72,24.16,24.16,0,0,1,6.41-19.33c3.17-3.55,7.64-5.44,12.18-6.88.44-.14.9-.21,1.35-.32,5.6-1.36,5.91-2.08,7.37-8.32,2.2-9.45,2-19.1,1.6-28.69-.23-6.06-1.2-12.09-2-18.12-.49-3.84-1.13-7.66-1.87-11.46-.8-4-2.26-7.82-5.44-10.68-.81-.72-1.64-1.41-2.58-2.23-.3,2.07-.45,4.15-.91,6.17a97.79,97.79,0,0,1-3.07,11.77q-6.75,18.21-15.23,35.7c-2.9,6-5.43,12.18-8.58,18-5.26,9.76-10.36,19.63-16.6,28.83-1.24,1.83-2.72,3.5-4,5.29-2.21,3.07-5.5,3.92-9,4.34-2.74.34-5.51.43-8.27.64a61.42,61.42,0,0,1-6.61.49c-5.71-.23-11.41-.77-17.12-1-4.22-.16-8.19-1.3-12.2-2.41a11.11,11.11,0,0,0-1.61-.39c-5.66-.55-7.3-4.26-7-8.53a26.76,26.76,0,0,1,6.89-16c3.27-3.7,7.51-5.27,12.18-6a27.69,27.69,0,0,0,11.47-4.59,6.15,6.15,0,0,0,1.23-1.11,160.78,160.78,0,0,0,16.69-24.79,64.69,64.69,0,0,0,5-11.11A36.06,36.06,0,0,0,856.12,553a58.56,58.56,0,0,0-7.64-11.51c-4.42-5.56-9.25-10.8-13.84-16.23-3.22-3.8-6.33-7.69-9.49-11.55-5.14-6.29-10.31-12.55-15.41-18.88-2.72-3.37-5.27-6.89-8-10.3-4.24-5.35-8.58-10.63-12.79-16-2.15-2.77-4.16-5.65-6.14-8.55A176.39,176.39,0,0,1,769.92,437c-1.8-3.75-3.87-7.37-5.77-11.08-1.74-3.38-4.6-5.77-7.3-8.28a4,4,0,0,0-2.58-.64,113.21,113.21,0,0,0-17,1.89c-8,1.58-15.61,4.54-23.3,7.19a151.24,151.24,0,0,0-21.44,9.07c-10.15,5.35-20.21,10.86-30.47,16a295.61,295.61,0,0,1-27.1,12.07c-6.74,2.55-13.31,5.59-20.12,7.92a194,194,0,0,1-27.56,7.35c-6.43,1.17-12.93,2-19.4,3a152.6,152.6,0,0,1-21.78,1.7c-2.28,0-4.56.46-7.08.73a27,27,0,0,0-.76,2.84c-.6,3.92-1.13,7.84-1.71,11.76-.73,4.92-1.46,9.84-2.23,14.76-1.23,7.92-2.54,15.83-3.73,23.75-1.05,7-1.94,14.06-3,21.07-.41,2.74-1.09,5.43-1.6,8.15-.75,4.08-1.38,8.18-2.21,12.24-2.33,11.57-7.49,22-13.14,32.22-2,3.64-3.65,7.47-5.67,11.1-1.61,2.9-3.49,5.67-5.36,8.42-2.33,3.44-4.75,6.82-7.18,10.2a37.21,37.21,0,0,1-3.42,4.35,14.19,14.19,0,0,1-7,3.84,69.09,69.09,0,0,1-13.14,1.75c-5.52.28-11,.69-16.56,1l-.56,0c-5.16.2-10.33.37-15.5.6-2.67.12-5.34.45-8,.46s-5.34-.21-8-.46c-2.84-.28-5.65-.84-8.49-1-2-.14-2.88-1.31-3.49-3A18.35,18.35,0,0,1,415,627.06a34.69,34.69,0,0,1,14.42-6.12c.91-.14,1.8-.4,2.7-.62a3.62,3.62,0,0,0,2.62-2.23c1.75-4,3.42-8,5.44-11.85a65,65,0,0,0,6-18.66,108.68,108.68,0,0,0,1.67-16.5c.14-4.42.63-8.82,1-13.23,0-.19.05-.37.05-.56.19-9.79.69-19.6.48-29.39A132.22,132.22,0,0,0,446.51,506a168.73,168.73,0,0,0-7.62-27.76q-3.72-9.86-7.89-19.54c-2.81-6.54-5.85-13-8.84-19.44A627.57,627.57,0,0,1,390.92,357c-4.33-14.33-7.79-28.9-11.19-43.47-3.24-13.87-5.43-29-10.42-42.31-3.77-10.05-13.7-16.37-22.63-21.55a53.54,53.54,0,0,0-16.88-6c-6.14-1.2-12.31-1-18.5-1.1-9.33-.11-18.68-.11-28-.64a88.32,88.32,0,0,1-18.6-2.55c-8.41-2.31-14.51-7.11-17.84-15.21a5.74,5.74,0,0,0-2.62-3,33.42,33.42,0,0,1-10.14-8.91c-1.61-2.14-3.26-4.24-4.82-6.41a29,29,0,0,1-4.63-10.63c-.79-3.46-.32-6.68,3-9.08a75.81,75.81,0,0,1,15.42-8.7c4.79-2,9.51-4.08,14.3-6,5.91-2.4,11.86-4.7,17.79-7a32.5,32.5,0,0,0,10.23-6,24.55,24.55,0,0,0,6.62-9.45,37,37,0,0,1,14.64-18.3c7.41-4.89,14.62-10.09,22.74-13.82a61.12,61.12,0,0,1,21-5.73c3.86-.29,7.73-.43,11.61-.55a27.62,27.62,0,0,1,11.33,2.27c4.28,1.73,8.67,3.26,12.76,5.38,5.82,3,11.54,6.25,17,9.8,6.91,4.46,13.64,9.19,20.28,14,4.68,3.43,9.07,7.27,13.61,10.9,3.82,3.06,7.7,6.06,11.51,9.13q3,2.43,5.9,5c4.53,4.09,9,8.27,13.52,12.33,6.2,5.54,12.33,11.16,18.75,16.44a65.53,65.53,0,0,0,18.1,10.12c8.36,3.23,16.65,6.65,25.07,9.73,4.59,1.67,9.37,2.85,14.08,4.18,9.06,2.57,18.11,5.22,27.23,7.61,8.57,2.26,17.19,4.33,25.84,6.29,7.55,1.72,15.15,3.26,22.76,4.71,5.25,1,10.56,1.65,15.82,2.59,5.45,1,10.85,2.16,16.3,3.14,5.89,1.07,11.8,2.09,17.72,3,29.07,4.32,58.53,2.71,87.79,2.24a444.81,444.81,0,0,1,86.84,7.26c22.88,4.12,45.45,9.55,68.2,14.3,23.3,4.85,46.75,8.88,70.15,13.15q7.38,1.35,14.75,2.74c20.9,3.95,41.52,7.54,62.69,9.61,22.41,2.19,45.65,5,68.13,5,3,.27,6.24.54,9,1.68a5,5,0,0,1,3.34,3.79c.74,7-11.11,14.75-16,18.21a100.26,100.26,0,0,1-24.72,12.49c-15.91,5.56-32.89,8.09-49.61,9.42-32.57,2.58-66.21,1.36-98.2-5-9.14-1.83-18.25-3.82-27.37-5.72-.86-.18-1.74-.27-3-.45,1.31,2.95,2.54,5.43,3.53,8,10.81,28.2,12.54,57.24,7.72,87-2.3,14.17-5.85,28.47-4,42.7,3.46,26.17,23.76,46.69,40.79,65.28,2.23,2.43,2.47,5.32,2.21,8.27-.34,3.94-1,7.86-1.52,11.78q-1.32,9.72-2.64,19.44c-.81,5.94-1.48,11.89-2.43,17.8-1.2,7.47-2.59,14.9-4,22.33-1.37,7.25-2.74,14.5-4.32,21.71a57.81,57.81,0,0,1-2.88,9.24c-1.6,3.94-5.09,5.39-9,6a150,150,0,0,1-18.44,1.74,6.76,6.76,0,0,0-1.78.55Z" transform="translate(-224.33 -110.4)"/><path class="cls-2" d="M244.47,196.33c2.31-6.07,2.7-12.39,2.81-18.75a2.23,2.23,0,0,0-.57-1.74c-1.2.5-2.4,1-3.6,1.51a75.81,75.81,0,0,0-15.42,8.7c-3.35,2.4-3.82,5.62-3,9.08a29,29,0,0,0,4.63,10.63c.16.23.34.45.5.68.77-.1,1.54-.2,2.29-.34C237.91,205,242.26,202.12,244.47,196.33Z" transform="translate(-224.33 -110.4)"/><path class="cls-2" d="M917.62,323c-.1.3-.39.71-.29,1,1.7,4,3.44,8,5.16,11.95.8.11,1.51.2,2.15.34l1.16.24q-2.81-6.08-5.6-12.15C919.7,323.28,919.15,322.36,917.62,323Z" transform="translate(-224.33 -110.4)"/><path class="cls-3" d="M361.76,122.83c-6.7,11.2-9.39,23.6-10.6,36.41a94.34,94.34,0,0,0,0,16.89c.52,6,1.13,12,1.88,17.91.53,4.3,1.25,8.59,2.08,12.85a22.43,22.43,0,0,0,4.93,10.41c3.2,3.76,7.24,4.47,11.33,1.68a25.93,25.93,0,0,0,5.1-4.66,182.81,182.81,0,0,0,14.7-20.48c3.72-5.87,7.53-11.66,12.56-16.53a67.35,67.35,0,0,0,13.55-18.48c2.87-5.74,4.88-11.62,4.8-17.87-6.21-4.52-12.5-8.94-18.95-13.1-5.5-3.55-11.22-6.79-17-9.8-4.09-2.12-8.48-3.65-12.77-5.38-.9-.37-1.82-.7-2.74-1C366.86,114.74,364.21,118.73,361.76,122.83Z" transform="translate(-224.33 -110.4)"/><path class="cls-2" d="M913.43,544a79.71,79.71,0,0,0-8.86-7.11c-7.17-4.91-14.54-9.51-21.72-14.41-7.33-5-14.68-10-21.75-15.35-6-4.52-11.58-9.51-17.29-14.36A319.82,319.82,0,0,1,814,463.39c-7.44-8.24-14.88-16.49-22.57-24.49a94.12,94.12,0,0,0-20.92-16.79,34.67,34.67,0,0,0-13.22-4.63c-.24,0-.49,0-.73,0a2.8,2.8,0,0,1,.34.21c1.15,1.08,2.33,2.14,3.45,3.26a26.48,26.48,0,0,1,6.33,2.41c8.93,4.76,16.47,11.28,23.37,18.55q12.21,12.89,24.08,26.12c10.2,11.42,21.44,21.73,33,31.77a238.1,238.1,0,0,0,24.21,18.56c10.37,6.94,20.84,13.73,31.11,20.82,4.18,2.89,8.72,5.56,11.13,10.43.23-1.47.41-3,.62-4.46l1.11,1A10.6,10.6,0,0,0,913.43,544Z" transform="translate(-224.33 -110.4)"/><path class="cls-2" d="M432.17,644.82c-1.22-6.42.54-12,5.71-16.08a23.56,23.56,0,0,1,11.77-5.23,11.11,11.11,0,0,0,6.61-3.21,30.41,30.41,0,0,0,7.15-10.13c1.64-4,3.2-8.07,4.74-12.13a80.76,80.76,0,0,0,5.22-21.46c.61-6.8.87-13.65,1.09-20.49.33-10.17.11-20.35-.54-30.51-.26-4.14-.51-8.31-1.18-12.4-1.09-6.74-2.45-13.44-3.83-20.13-.71-3.43-1.73-6.79-2.59-10.19-.33-1.27-1-2-2.59-1.43-.65,1.31-.19,2.43.07,3.6,1.76,7.84,3.67,15.65,5.14,23.54,2.05,11,2.46,22.24,2.58,33.41.11,10-.59,20-.87,29.94a71,71,0,0,1-2.12,14.51c-1.78,7.49-4.75,14.56-7.6,21.68a29.83,29.83,0,0,1-6.62,9.81,7.87,7.87,0,0,1-4.82,2.53c-4.27.45-7.91,2.38-11.49,4.55-5.88,3.56-8.63,8.89-9,15.61-.24,4.18,1,8,2.59,11.71l3.05-.19a7.28,7.28,0,0,1-.4-.72A29.86,29.86,0,0,1,432.17,644.82Z" transform="translate(-224.33 -110.4)"/><path class="cls-2" d="M273.92,229.47c1.93.05,3.87-.33,5.81-.36a37.71,37.71,0,0,0,12.16-2.44,9.56,9.56,0,0,0,2.12-1.44c-1.1-1.74-1.18-1.83-2.12-1.69a9.11,9.11,0,0,0-1.6.46,39.63,39.63,0,0,1-13.86,2.26c-4.34-.07-8.68-.08-13-.11a49.13,49.13,0,0,1-13.64-2c-1.18-.34-2.34-.72-3.49-1.12a7.34,7.34,0,0,1,.58,1.12c.37.89.78,1.73,1.22,2.55C256.54,229.21,265.25,229.2,273.92,229.47Z" transform="translate(-224.33 -110.4)"/><path class="cls-2" d="M309.07,161.43a9.64,9.64,0,0,0-2.06,2.88c-1.09,2.12-1,4.46-.85,6.76a4.32,4.32,0,0,0,3.53,4.34c4.14,1,5.86-3.92,6.07-8.08a12.13,12.13,0,0,0-.41-4.13A3.9,3.9,0,0,0,309.07,161.43Z" transform="translate(-224.33 -110.4)"/><path class="cls-2" d="M475.87,209.56c1.52,1.08,2.39,1,2.9-.83a44.36,44.36,0,0,0,1.32-7.06c.4-3.58.74-7.16,1.05-10.75-.85-.74-1.72-1.46-2.56-2.2-.27,3.49-.68,7-1.15,10.44S476.39,206.07,475.87,209.56Z" transform="translate(-224.33 -110.4)"/><path class="cls-2" d="M916.08,644.5c.24-.91.28-1.82-.74-2-.53-.1-1.23.5-1.77.9a1.81,1.81,0,0,0-.44,1q-1.41,6.3-2.81,12.59c.87,0,1.75.06,2.63.06.09-.44.17-.89.27-1.34C914.1,652,915.1,648.22,916.08,644.5Z" transform="translate(-224.33 -110.4)"/><path class="cls-2" d="M908.54,641.81c-1.59-1.42-2.25-1.43-2.89.21a53.1,53.1,0,0,0-2.29,7.36c-.49,2.18-.91,4.37-1.3,6.57,1,.18,1.94.35,2.92.49.74-3.51,1.47-7,2.26-10.52C907.56,644.5,908.11,643.14,908.54,641.81Z" transform="translate(-224.33 -110.4)"/><path class="cls-2" d="M376.36,267.08a30.34,30.34,0,0,0,4.55-1.16c1.57-.57,1.67-1.21.71-3.09l-2,.52c-4.67,1.22-9.35,2.19-14,1.14a28.94,28.94,0,0,1,2,3.09A32.23,32.23,0,0,0,376.36,267.08Z" transform="translate(-224.33 -110.4)"/><path class="cls-2" d="M818.83,637.32c-1.71.59-2,2-2.38,3.13q-1.65,5.41-3,10.9c-.15.59-.24,1.2-.35,1.8l2.77.74a74,74,0,0,1,4.34-15.29Z" transform="translate(-224.33 -110.4)"/><path class="cls-2" d="M829.19,639.48c-1.89-.9-2.68,0-3.22,1.12a67.82,67.82,0,0,0-4.8,14.44c1,.15,1.91.24,2.88.3a61.93,61.93,0,0,1,4.7-14A9.14,9.14,0,0,0,829.19,639.48Z" transform="translate(-224.33 -110.4)"/><path class="cls-2" d="M447.9,637.9c-1.94-.62-2.25-.59-2.91.55a9.49,9.49,0,0,0-.93,2.29A77.26,77.26,0,0,0,442,651.8l2.82-.11c.51-2.32.71-4.71,1.23-7S447.27,640.14,447.9,637.9Z" transform="translate(-224.33 -110.4)"/><path class="cls-2" d="M453.45,638.3a5.61,5.61,0,0,0-.6,1.23,50.06,50.06,0,0,0-3.13,12l2.06-.08.56,0,.28,0a43.39,43.39,0,0,1,3.72-12.71C454.87,637.18,454.3,637.13,453.45,638.3Z" transform="translate(-224.33 -110.4)"/><path class="cls-2" d="M424,637.24c-1.82-1-2.53-.88-3.12,1.26-1.2,4.37-2.27,8.77-3.33,13.18.91.12,1.81.24,2.72.33a81.78,81.78,0,0,1,3.67-13.75A3.52,3.52,0,0,0,424,637.24Z" transform="translate(-224.33 -110.4)"/><path class="cls-2" d="M415.63,636.27c-1.67,0-2.09,1.25-2.58,2.3a40.35,40.35,0,0,0-2.93,11.19c0,.21-.07.43-.11.64a3.64,3.64,0,0,0,1.77.58c.36,0,.73.07,1.09.1.48-4.25,1.21-8.43,3.22-12.29C416.54,637.92,416.77,637.05,415.63,636.27Z" transform="translate(-224.33 -110.4)"/></svg>