<svg id="Layer_1" data-name="Layer 1" xmlns="http://www.w3.org/2000/svg" viewBox="0 0 916.62 547.31"><defs><style>.cls-1{fill:#ecc68b;}.cls-2{fill:#47340e;}.cls-3{fill:#e0a953;}</style></defs><path class="cls-1" d="M913.22,657.7a12.21,12.21,0,0,0-2.62-.54A56.55,56.55,0,0,1,898.78,656c-3.21-.62-3.95-1.46-4.46-4.68-1.18-7.4,1.54-13.64,6-19.17,2.8-3.46,6.88-5.23,11-6.66a34.43,34.43,0,0,1,3.72-1.09,3,3,0,0,0,2.57-2.54c.76-4.54,1.58-9.07,2.26-13.62,1.14-7.64.68-15.35.44-23a127.85,127.85,0,0,0-3.42-27.11A54.82,54.82,0,0,0,912.22,546c-.07-.14-.3-.2-.65-.41A4.84,4.84,0,0,0,911,547a63.61,63.61,0,0,1-4.48,18.51c-5.35,13.8-11.44,27.27-17.73,40.67A390.36,390.36,0,0,1,869.37,642c-1.76,2.92-3.92,5.59-5.89,8.39a11.89,11.89,0,0,1-9.18,5c-6.25.5-12.51,1-18.77,1.09-4.59,0-9.18-.75-13.78-.92A47,47,0,0,1,809.31,653c-1-.33-2.21-.27-3.25-.62-3.66-1.22-5.53-4.37-5-8.87a28.1,28.1,0,0,1,6.59-15,17.31,17.31,0,0,1,12-6.23c6.81-.62,11.51-4.43,15.72-9.37a90.91,90.91,0,0,0,11.41-17,69.44,69.44,0,0,0,7.69-23,51.24,51.24,0,0,0-.25-13.22c-.62-4.92-3.2-9.08-6.15-12.89-3.16-4.08-6.64-7.92-10.05-11.81-4.38-5-8.82-9.94-13.26-14.89-2.28-2.54-4.75-4.93-6.92-7.57-5.23-6.33-11.13-12.08-16.11-18.65-4.24-5.58-9-10.79-13.28-16.32-3.74-4.82-7.18-9.86-10.74-14.81-.65-.89-1.23-1.82-1.81-2.7-4.15-.55-8.07,0-12,.63-27.29,4.1-54.23,13.19-81.5,18.23-37.28,6.89-76,14.17-114,13.69-4-.06-8.08-.59-12.12-1-3.76-.35-7.51-.79-11.26-1.2-2.09-.22-4.18-.46-6.17-.68-1.87,2.21-1.86,4.71-2.29,7-.77,4.17-1.31,8.37-2,12.56q-1.82,11.31-3.67,22.63-1.73,10.5-3.47,21c-.87,5.27-1.82,10.53-2.59,15.81a106.92,106.92,0,0,1-5.58,23.08,108.76,108.76,0,0,1-8.86,17.24c-3.36,5.53-6.39,11.27-10,16.65-4.3,6.43-8,13.34-13.74,18.72a18.3,18.3,0,0,1-10.32,4.92,120.5,120.5,0,0,1-14.33,1.14c-4.23.09-8.45.66-12.67,1-2.76.22-5.52.47-8.28.56-6.74.24-13.49.64-20.22.5A90.55,90.55,0,0,1,408,650.89a3.73,3.73,0,0,1-2.16-1.88,15.7,15.7,0,0,1-1.34-9.44c.9-7,5.27-11.4,11.07-14.67a33.41,33.41,0,0,1,5.56-2.5,14.08,14.08,0,0,0,7.15-5.43c24.14-34.45,17.72-88,8.31-126.49C424,439,396.06,393,381.59,342.21c-1.77-6.22-3.55-12.45-5-18.75-2.05-9.18-3.83-18.42-5.61-27.66-1.93-10-1.86-22.91-8.11-31.37-3.11-4.2-7.73-6.84-11.84-9.94A56.06,56.06,0,0,0,337,246.56a76.62,76.62,0,0,0-10.4-2.79c-8.95-2-18.06-.84-27.09-1.12-6.74-.21-13.51-.12-20.22-.67a96.38,96.38,0,0,1-17.48-2.56A27.19,27.19,0,0,1,248,231c-1.83-2.16-2.54-4.71-4.14-6.94s-4.06-3.8-6.22-5.51c-7.58-6-13.1-13.48-15.78-22.9a8.68,8.68,0,0,1,3.21-9.75,67.68,67.68,0,0,1,15.22-8.46c6.73-2.84,13.4-5.81,20.15-8.61,4.35-1.8,8.82-3.33,13.2-5.07a29.45,29.45,0,0,0,13.1-10.34,17.13,17.13,0,0,0,1.95-3.66c3.11-7.72,7.69-14.23,14.76-18.92,6.54-4.35,12.87-9,19.89-12.59a72.32,72.32,0,0,1,19.33-6.65,76.4,76.4,0,0,1,19.32-1,35.71,35.71,0,0,1,9.36,2.39,107.78,107.78,0,0,1,19.31,9c9.93,5.91,19.8,11.92,28.91,19.07,7.55,5.93,14.92,12.08,22.51,18,6.38,4.93,12.16,10.49,18.12,15.89,4.79,4.34,9.81,8.41,14.69,12.64,38.11,33.11,99.77,44,148.71,51,63.74,9.13,129.23,2.09,192.31,12.94,9.63,1.66,19.21,3.58,28.79,5.51s19.14,4,28.71,6.05c50.79,10.8,102,19.9,153.5,26.43q37.18,4.69,74.55,7.29c7.71.53,32.59-.4,35.94,8.75,7,19.1-41.89,33.76-53.35,37.19-33.45,10-67.11,8.65-101.44,5.49-2.93-.27-5.86-.65-8.79-.95-2.47-.26-5-.44-7.43-.71-11.3-1.22-22.49-2.93-33.17-7.09a60.58,60.58,0,0,0-13.51-3.3c.64,1.36,1.06,2.36,1.58,3.3a90.61,90.61,0,0,1,8.79,22.7c1.43,5.91,2.59,11.9,3.49,17.91.73,4.82,1,9.72,1.25,14.59s.58,9.78.5,14.67c-.07,4.41-.62,8.82-1,13.23-.19,2.39-.35,4.78-.62,7.16-.47,4.11-1,8.22-1.51,12.33s-.88,8.25-1.27,12.37-.72,8.08-1,12.12a19.39,19.39,0,0,0,.13,3c.06.73.32,1.45.31,2.18,0,6.51,1.43,12.81,2.48,19.17C934,498,938,503.76,942,509.39a121.65,121.65,0,0,0,13.77,15.55c2.63,2.59,5.48,5,8.08,7.59a23.51,23.51,0,0,1,6.7,13.37c.74,4.78,0,9.38-.6,14-.78,5.94-1.8,11.85-2.85,17.74-1.77,9.89-3.53,19.79-5.5,29.64-2.2,11-4.59,22-7,33a73.49,73.49,0,0,1-2.17,7.71c-1.48,4.45-5,6.55-9.32,7.29-3.54.59-7.13.88-10.71,1.23-2.66.26-5.33.38-8,.62a3.94,3.94,0,0,0-1.22.53Z" transform="translate(-221.48 -110.39)"/><path class="cls-2" d="M240.35,197.11c2.31-6.07,2.7-12.39,2.81-18.76a2.21,2.21,0,0,0-.72-1.85l-2.13.92a68,68,0,0,0-15.23,8.46,8.69,8.69,0,0,0-3.2,9.75A42.23,42.23,0,0,0,227.06,207l.9-.13C233.79,205.82,238.14,202.9,240.35,197.11Z" transform="translate(-221.48 -110.39)"/><path class="cls-3" d="M357.59,123.67c-6.69,11.21-9.36,23.61-10.56,36.42a93.53,93.53,0,0,0,.05,16.9c.51,6,1.14,11.95,1.88,17.9.53,4.21,1.24,8.41,2,12.58a22.54,22.54,0,0,0,5,10.66c3.12,3.65,7.11,4.39,11.11,1.72a26.18,26.18,0,0,0,5.32-4.82,186.39,186.39,0,0,0,14.69-20.49c3.67-5.79,7.41-11.51,12.37-16.32a67.62,67.62,0,0,0,13.22-17.7c3.41-6.6,5.75-13.37,5.16-20.7a284.36,284.36,0,0,0-27.2-17.8,107.78,107.78,0,0,0-19.31-9c-1.29-.46-2.6-.91-3.93-1.3C363.12,114.91,360.25,119.23,357.59,123.67Z" transform="translate(-221.48 -110.39)"/><path class="cls-2" d="M428,645.57c-1.2-6.42.56-12,5.74-16.07a23.6,23.6,0,0,1,11.77-5.22,11,11,0,0,0,6.6-3.23,29.76,29.76,0,0,0,7.14-10.13q3-7.59,5.83-15.27a71.32,71.32,0,0,0,4.12-18.32c.61-6.81.88-13.65,1.1-20.49.33-10.17.11-20.35-.54-30.51-.27-4.14-.52-8.31-1.19-12.41-1.09-6.73-2.44-13.43-3.83-20.12-.71-3.43-1.73-6.79-2.6-10.19-.32-1.28-1-1.95-2.53-1.42-.72,1.35-.22,2.47,0,3.63,1.76,7.94,3.66,15.84,5.16,23.83,2,10.93,2.42,22.05,2.55,33.13.11,10-.59,20-.88,29.94a70.29,70.29,0,0,1-2.12,14.51c-1.79,7.48-4.75,14.56-7.6,21.67a30.13,30.13,0,0,1-6.43,9.62,8.14,8.14,0,0,1-5,2.71c-4.27.45-7.91,2.38-11.49,4.55-5.87,3.57-8.61,8.9-9,15.63a25.14,25.14,0,0,0,2.37,11.14l3-.07c0-.11-.13-.21-.18-.32A29.83,29.83,0,0,1,428,645.57Z" transform="translate(-221.48 -110.39)"/><path class="cls-2" d="M909.64,546c-3.1-2.63-6.12-5.37-9.38-7.8-9.81-7.34-20.55-13.11-31.54-18.45a284.06,284.06,0,0,1-32.11-18.05c-14.54-9.58-28-20.57-41.81-31.16-3.95-3-8.1-5.81-12.23-8.62a10.36,10.36,0,0,0-6.5-1.65c.53.81,1.07,1.66,1.66,2.47l.3.44a9.64,9.64,0,0,1,4.23,1.84c6.37,4.75,12.86,9.36,19,14.34,11.46,9.24,23.24,18,35.51,26.14s25.25,14.25,38.14,20.88c12.22,6.27,23.93,13.29,33.76,23.05a4.6,4.6,0,0,0,1.31.69,2.68,2.68,0,0,0,.66-.42c.09-.67.19-1.34.25-2l-.08-.18A4.85,4.85,0,0,0,909.64,546Z" transform="translate(-221.48 -110.39)"/><path class="cls-2" d="M277.68,229.73c3.53-.61,7-1.53,10.48-2.45.67-.18,1.19-.94,1.65-1.33-.36-1.5-1.15-1.82-2.19-1.62a11.18,11.18,0,0,0-1.59.48A38.83,38.83,0,0,1,272.44,227c-4.34-.06-8.68-.08-13-.1a50,50,0,0,1-13.91-2.08c-.48-.14-1-.31-1.43-.46a37,37,0,0,1,2,3.62c7.8,2,15.83,2,23.82,2.22A40.08,40.08,0,0,0,277.68,229.73Z" transform="translate(-221.48 -110.39)"/><path class="cls-2" d="M308.94,161.56a4,4,0,0,0-4.72,1.32,7.14,7.14,0,0,0-1.47,2.62,33.59,33.59,0,0,0-.69,6.24,4.23,4.23,0,0,0,3.67,4.49c4.41.85,6.33-5.45,6.41-8.72C312.21,164.75,311.27,162.24,308.94,161.56Z" transform="translate(-221.48 -110.39)"/><path class="cls-2" d="M474.2,210.34a8.66,8.66,0,0,0,1.11-3.11c.51-3.47.91-6.95,1.27-10.44q.38-3.63.66-7.26c-.78-.65-1.57-1.28-2.33-1.95l-.37-.31a156.15,156.15,0,0,1-2.92,23.06C472.62,211.47,473.56,211.45,474.2,210.34Z" transform="translate(-221.48 -110.39)"/><path class="cls-2" d="M912,645.09c.22-.79.14-1.65-.73-1.79a2.49,2.49,0,0,0-1.78.81,3.89,3.89,0,0,0-.71,1.77q-1.32,5.57-2.6,11.13c.93.07,1.86.12,2.79.13.3-1.54.6-3.09,1-4.63C910.5,650,911.32,647.56,912,645.09Z" transform="translate(-221.48 -110.39)"/><path class="cls-2" d="M904.26,643.19c-.14-.56-.36-1.36-.77-1.52s-1.14.23-1.64.52c-.27.16-.41.6-.53.95a83.28,83.28,0,0,0-3.39,12.66c.27.06.54.13.85.18.65.13,1.31.24,2,.35a78.51,78.51,0,0,1,3.15-12.12C904,643.86,904.33,643.49,904.26,643.19Z" transform="translate(-221.48 -110.39)"/><path class="cls-2" d="M372.29,267.84a36.38,36.38,0,0,0,4.3-1c1.55-.52,1.73-1.13,1.09-3.23l-2.53.64c-3.77.95-7.55,1.84-11.43,1.41a25.89,25.89,0,0,1,1.54,2.78A31.39,31.39,0,0,0,372.29,267.84Z" transform="translate(-221.48 -110.39)"/><path class="cls-2" d="M814.72,638.12c-1.69.47-2,1.85-2.36,3q-1.67,5.42-3,10.9c-.08.3-.12.61-.18.92l.17,0c.86.27,1.73.53,2.6.78a73.17,73.17,0,0,1,4.16-14.46Z" transform="translate(-221.48 -110.39)"/><path class="cls-2" d="M825,640.19c-2.11-.86-2.81.3-3.35,1.5A71.53,71.53,0,0,0,817.2,655c1,.17,1.93.29,2.91.38A58.73,58.73,0,0,1,824.67,642,7.51,7.51,0,0,0,825,640.19Z" transform="translate(-221.48 -110.39)"/><path class="cls-2" d="M443.67,638.74a1.44,1.44,0,0,0-2.38-.07,4,4,0,0,0-.84,1.41,57.34,57.34,0,0,0-2.54,12.12l2.9-.11a41,41,0,0,1,2.91-12.55C443.82,639.33,443.69,639,443.67,638.74Z" transform="translate(-221.48 -110.39)"/><path class="cls-2" d="M449.41,639a5,5,0,0,0-.64,1.21,49.77,49.77,0,0,0-3.12,11.63l2.87-.22a47.77,47.77,0,0,1,3.72-12.29C450.66,638,450.19,638,449.41,639Z" transform="translate(-221.48 -110.39)"/><path class="cls-2" d="M416.91,638.79a73.14,73.14,0,0,0-3.56,13c.95.15,1.9.27,2.85.39q1.77-7.11,3.52-14.24C418,637,417.58,637.06,416.91,638.79Z" transform="translate(-221.48 -110.39)"/><path class="cls-2" d="M411.49,637c-1.63.05-2.07,1.25-2.56,2.31a38,38,0,0,0-2.76,10.12,3.34,3.34,0,0,0,1.86,1.43l.82.14A33,33,0,0,1,412,639.57C412.42,638.69,412.64,637.82,411.49,637Z" transform="translate(-221.48 -110.39)"/><path class="cls-2" d="M913.26,324.53c-.11,2.11,1.56,4.43,2.44,6.29l1.61,3.36c.18.39,1.18,3.12,1.51,3.17l1.57.21c-.2-.43-.41-.89-.66-1.41l1.78.29c-2-4.09-3.79-8-5.66-11.8C915.37,323.67,913.35,322.84,913.26,324.53Z" transform="translate(-221.48 -110.39)"/></svg>