<svg id="Layer_1" data-name="Layer 1" xmlns="http://www.w3.org/2000/svg" viewBox="0 0 916.49 547.26"><defs><style>.cls-1{fill:#ecc68b;}.cls-2{fill:#47340e;}.cls-3{fill:#e0a953;}</style></defs><path class="cls-1" d="M913.61,657.55a7.51,7.51,0,0,0-2.06-.52,50.65,50.65,0,0,1-10.43-1.15c-2.77-.52-3.56-1.44-3.62-4.32,0-2-.09-4.08,0-6.11.31-7.7,3.64-13.73,10.42-17.46,3-1.62,6.31-2.55,9.5-3.75,1-.36,2-.57,2.9-.92a3.88,3.88,0,0,0,2.25-2.29c1.66-3.69,2.13-7.67,2.59-11.57a111,111,0,0,0,.61-14.93c-.11-5.61-.66-11.22-1-16.83-.47-7.19-1.94-14.23-3.38-21.27-.9-4.41-3.39-7.89-7-11a11.89,11.89,0,0,0-.72,2.25c-.59,7.27-2.82,14.12-5.54,20.79-4.5,11.05-9,22.08-14.36,32.76-2.85,5.72-5.41,11.58-8.39,17.22-4.8,9.06-9.58,18.16-15.32,26.68-1.55,2.28-3.48,4.3-5.16,6.5a9.91,9.91,0,0,1-7.48,3.68c-6.16.49-12.32,1-18.49,1.09-5,0-10.1-.75-15.16-.94a52.5,52.5,0,0,1-9.51-1.7c-5.31-1.18-7.45-4.07-7.24-9.8a22.5,22.5,0,0,1,3.61-11.79,16.58,16.58,0,0,1,3.6-3.74,24.46,24.46,0,0,1,12.6-5.32c6.9-.75,12-4.49,15.89-10,5.75-8.17,11.32-16.47,15.39-25.64a117.9,117.9,0,0,0,5.52-13.88,20.53,20.53,0,0,0,.29-8.49c-1.77-12.37-7.95-21.85-16-31.09-20.59-23.73-44.27-44.23-62.4-70.12A236.64,236.64,0,0,1,770.33,439c-3.71-7-6.4-17.65-14.11-21.44a12.54,12.54,0,0,0-6.09-.82c-27.22,1.1-54.54,12.24-79.48,22.48-17.21,7.06-33.83,15.38-51.58,21.05-23,7.36-46.14,10.35-70,13.23-2.74.33-5.51.52-8.55.79a12.22,12.22,0,0,0-.8,2.17c-1.49,9.28-3,18.55-4.38,27.83-3.77,24.88-6.6,50.12-11.79,74.76A86.5,86.5,0,0,1,516,600.42c-3.22,6.34-6.83,12.49-10,18.86-4.22,8.48-10,15.89-15.44,23.56-2.63,3.73-6.5,5.66-11,6.37a105.56,105.56,0,0,1-13.76,1.18c-6.08.15-12.15.71-18.23,1.07q-5.39.31-10.77.54c-4.61.2-9.23.54-13.83.48a53.34,53.34,0,0,1-12-1.55,4,4,0,0,1-2.94-2.62c-2.61-6.51-.24-15,3.79-18.83a32.25,32.25,0,0,1,14.34-8c2.4-.64,4.82-1.23,7.15-1.82,2.56-5.35,5-10.53,7.51-15.67,3.27-6.65,4.48-13.88,5.95-21,4-19.56,4.17-41,3.52-61a190.28,190.28,0,0,0-4.62-37.29c-4.85-20.64-15.81-38.93-24.68-58-11.83-25.39-23.23-51.65-30.94-78.62-2.68-8.55-5.13-17.17-7.49-25.81-4-14.55-7.62-29.19-11.43-43.78a53.34,53.34,0,0,0-3.93-11.42c-3.12-5.95-10.1-10.88-15.75-14.33-6.42-3.93-13-7.5-20.49-8.78a67.72,67.72,0,0,0-12.06-1.47c-6.29.07-12.59.1-18.89,0-6.74-.1-13.5,0-20.2-.67-4.83-.45-9.77-.65-14.44-2.3-1.73-.61-3.62-.83-5.28-1.58-6.49-3-11.31-7.58-13.86-14.38a4,4,0,0,0-1.53-1.85,48.33,48.33,0,0,1-17.05-18.21c-1.9-3.47-3.66-7-3.55-11.23a7.62,7.62,0,0,1,3.21-6.38A72.14,72.14,0,0,1,244,176.7c5.49-2.21,10.83-4.77,16.3-7,5.64-2.31,11.44-4.26,17-6.68a25.72,25.72,0,0,0,13.86-13.28,96.36,96.36,0,0,1,5.45-10.29c2.19-3.62,5.58-6.17,9-8.52,7.44-5.15,14.79-10.48,23.08-14.27a70.39,70.39,0,0,1,20.68-5.88,107.45,107.45,0,0,1,14.67-.41c4.2.05,8.11,1.59,12,3.1a155.91,155.91,0,0,1,21.49,10.9c19,11,36.35,24.54,52.93,38.82,15.76,13.57,30.18,29.35,48,40.22,5.73,3.49,11.67,6.62,17.67,9.61,19,9.46,39.48,15,59.67,21.32,21.6,6.76,43.44,13,65.8,16.73,28.39,4.72,57.3,5.16,86.09,5.59,47.07.7,93.59,2.35,140.16,9.92,23.34,3.8,46.79,7.31,70.21,10.73q35.09,5.52,70.07,11.58c11.78,2,23.54,4.27,35.33,6.22,10.73,1.78,22.29,2.08,33.22,3q9.61.75,19.23,1.27,8.79.46,17.59.72c5.68.17,26.12-1.18,27,7,.65,5.79-7.49,12.28-11.58,15.27-18.57,13.52-41.19,20.6-64,23.72-46.32,6.34-93.37.66-138.74-9.2l-3.46-.76a10.56,10.56,0,0,0-1.11-.06c.88,1.94,1.67,3.73,2.5,5.49,8.78,18.66,12,39.58,11.76,60.08s-5.71,40-7.82,60.3c-3,29,19.94,52.5,37.78,72.21,1.24,1.37,2.33,2.87,3.58,4.23,2.18,2.37,2.56,5.31,2.37,8.25-.23,3.57-.91,7.12-1.38,10.68-3.69,28.49-7.88,56.8-14,84.91-.72,3.36-1.55,6.88-3.85,9.45-5.49,6.16-17.56,4.78-25.07,5.46a4.12,4.12,0,0,0-1.22.51Z" transform="translate(-224.08 -110.29)"/><path class="cls-2" d="M244.51,196.79c2.31-6.06,2.7-12.38,2.81-18.75a2,2,0,0,0-1.31-2.19l-2,.85a72.14,72.14,0,0,0-16.67,9.21,7.62,7.62,0,0,0-3.21,6.38c-.11,4.19,1.65,7.76,3.55,11.23.65,1.17,1.34,2.3,2.05,3.4.82-.1,1.63-.21,2.43-.35C238,205.5,242.3,202.58,244.51,196.79Z" transform="translate(-224.08 -110.29)"/><path class="cls-2" d="M917.66,323.48c-.1.3-.39.72-.29,1,1.64,3.86,3.32,7.71,5,11.56a2.81,2.81,0,0,1,.46,0l2.89.64q-2.73-5.94-5.47-11.86C919.74,323.74,919.18,322.83,917.66,323.48Z" transform="translate(-224.08 -110.29)"/><path class="cls-3" d="M361.79,123.29c-6.69,11.2-9.38,23.6-10.59,36.41a94.34,94.34,0,0,0,0,16.89q.76,9,1.87,17.91c.54,4.3,1.25,8.59,2.08,12.85a22.31,22.31,0,0,0,4.94,10.41c3.2,3.76,7.24,4.48,11.33,1.68a26.49,26.49,0,0,0,5.1-4.65,185.15,185.15,0,0,0,14.7-20.49c3.72-5.87,7.52-11.66,12.55-16.53a67.48,67.48,0,0,0,13.56-18.47c3-6,5.05-12.2,4.75-18.79a280.08,280.08,0,0,0-24.6-16.16A155.91,155.91,0,0,0,376,113.45c-1.59-.62-3.18-1.23-4.8-1.76C367.15,114.8,364.37,119,361.79,123.29Z" transform="translate(-224.08 -110.29)"/><path class="cls-2" d="M913.47,544.48a79.57,79.57,0,0,0-8.86-7.12c-7.17-4.9-14.54-9.51-21.72-14.4-7.34-5-14.69-10-21.76-15.36-6-4.51-11.57-9.51-17.28-14.36A318.58,318.58,0,0,1,814,463.85c-7.44-8.24-14.88-16.49-22.57-24.49a93.63,93.63,0,0,0-20.93-16.78A34.51,34.51,0,0,0,757.28,418c-.15,0-.3,0-.45,0a15.69,15.69,0,0,1,4.37,3.67,26.3,26.3,0,0,1,5.46,2.19c8.94,4.76,16.48,11.28,23.37,18.55q12.22,12.9,24.08,26.12c10.2,11.42,21.45,21.73,33,31.77a239.21,239.21,0,0,0,24.21,18.56c10.38,6.94,20.85,13.73,31.12,20.82,4.12,2.85,8.59,5.5,11,10.24q.15-1.11.24-2.22a11.92,11.92,0,0,1,.71-2.24A10.94,10.94,0,0,0,913.47,544.48Z" transform="translate(-224.08 -110.29)"/><path class="cls-2" d="M432.21,645.29c-1.22-6.43.54-12,5.71-16.09A23.53,23.53,0,0,1,449.69,624a11.11,11.11,0,0,0,6.61-3.21,30.42,30.42,0,0,0,7.14-10.13c1.64-4,3.21-8.07,4.75-12.12a80.94,80.94,0,0,0,5.22-21.46c.61-6.81.87-13.66,1.09-20.49.33-10.18.11-20.35-.54-30.51-.27-4.15-.52-8.32-1.18-12.41-1.09-6.74-2.45-13.44-3.83-20.13-.71-3.42-1.73-6.79-2.6-10.19-.32-1.27-1-2-2.59-1.43-.64,1.31-.18,2.43.08,3.6,1.76,7.84,3.67,15.65,5.14,23.55,2,11,2.46,22.23,2.58,33.4.11,10-.59,20-.87,29.95a71,71,0,0,1-2.12,14.5c-1.79,7.49-4.75,14.56-7.6,21.68a29.6,29.6,0,0,1-6.63,9.81,7.88,7.88,0,0,1-4.81,2.54c-4.28.44-7.92,2.37-11.5,4.54-5.87,3.56-8.62,8.89-9,15.61a25.09,25.09,0,0,0,2.38,11.19l3-.14c0-.09-.09-.16-.13-.25A29.77,29.77,0,0,1,432.21,645.29Z" transform="translate(-224.08 -110.29)"/><path class="cls-2" d="M274,229.93c1.93.06,3.87-.33,5.81-.36a37.45,37.45,0,0,0,12.16-2.44,10.12,10.12,0,0,0,2.12-1.43c-1.11-1.75-1.19-1.84-2.13-1.7a8.26,8.26,0,0,0-1.59.47,39.87,39.87,0,0,1-13.87,2.25c-4.33-.07-8.67-.08-13-.1a50,50,0,0,1-13.64-2c-1.24-.37-2.48-.77-3.7-1.2a2,2,0,0,1,.11.2,24.87,24.87,0,0,0,1.63,3.45l.31.11C256.58,229.67,265.29,229.67,274,229.93Z" transform="translate(-224.08 -110.29)"/><path class="cls-2" d="M309.11,161.9a9.47,9.47,0,0,0-2.06,2.87c-1.1,2.12-1,4.46-.85,6.76a4.3,4.3,0,0,0,3.53,4.34,4.12,4.12,0,0,0,4.67-2.58,14.91,14.91,0,0,0,1.23-5.48,11.43,11.43,0,0,0-.57-3.84C314.06,160.94,311.78,159.61,309.11,161.9Z" transform="translate(-224.08 -110.29)"/><path class="cls-2" d="M475.9,210c1.53,1.09,2.4,1,2.91-.83a45.39,45.39,0,0,0,1.32-7.05q.62-5.65,1.09-11.33c-.86-.72-1.72-1.43-2.57-2.16-.27,3.67-.69,7.32-1.19,11C477,203.08,476.43,206.53,475.9,210Z" transform="translate(-224.08 -110.29)"/><path class="cls-2" d="M916.12,645c.24-.9.28-1.81-.75-2-.52-.1-1.23.5-1.76.9a1.74,1.74,0,0,0-.44,1c-.92,4-1.81,8.1-2.72,12.15.37,0,.73,0,1.1,0a4.39,4.39,0,0,1,1.47.33c.08-.4.14-.8.24-1.2C914.14,652.41,915.14,648.69,916.12,645Z" transform="translate(-224.08 -110.29)"/><path class="cls-2" d="M908.57,642.27c-1.58-1.41-2.24-1.43-2.88.22a52.72,52.72,0,0,0-2.3,7.36c-.46,2.06-.86,4.13-1.23,6.21,1,.18,2,.34,2.93.49.72-3.39,1.42-6.79,2.19-10.17C907.6,645,908.15,643.6,908.57,642.27Z" transform="translate(-224.08 -110.29)"/><path class="cls-2" d="M376.4,267.54a31.9,31.9,0,0,0,4.55-1.15c1.56-.58,1.66-1.22.71-3.1l-2,.52C375.06,265,370.5,266,365.92,265a18.42,18.42,0,0,1,1.27,2.06c.16.31.28.63.43,1A32.38,32.38,0,0,0,376.4,267.54Z" transform="translate(-224.08 -110.29)"/><path class="cls-2" d="M818.87,637.79c-1.71.58-2,2-2.39,3.13-1.1,3.6-2.11,7.24-3,10.89-.13.53-.21,1.06-.31,1.59.35.11.69.22,1.08.31l1.69.39a74,74,0,0,1,4.29-15Z" transform="translate(-224.08 -110.29)"/><path class="cls-2" d="M829.22,639.94c-1.88-.9-2.68,0-3.22,1.12a68.84,68.84,0,0,0-4.73,14.13c.81.11,1.64.19,2.48.22l.42,0a61.94,61.94,0,0,1,4.61-13.64A8.61,8.61,0,0,0,829.22,639.94Z" transform="translate(-224.08 -110.29)"/><path class="cls-2" d="M447.94,638.37c-1.94-.63-2.26-.6-2.92.54a10.38,10.38,0,0,0-.93,2.29,77.42,77.42,0,0,0-2,10.54l2.85-.14c.42-2.15.65-4.34,1.13-6.47C446.56,642.84,447.3,640.61,447.94,638.37Z" transform="translate(-224.08 -110.29)"/><path class="cls-2" d="M453.49,638.76a5.5,5.5,0,0,0-.61,1.24,51.42,51.42,0,0,0-3.07,11.32l3-.2a41.86,41.86,0,0,1,3.61-12C454.91,637.64,454.33,637.59,453.49,638.76Z" transform="translate(-224.08 -110.29)"/><path class="cls-2" d="M424,637.7c-1.82-1-2.53-.88-3.12,1.27-1.2,4.35-2.27,8.75-3.32,13.14.91.11,1.81.2,2.72.26a83.8,83.8,0,0,1,3.65-13.65A3.53,3.53,0,0,0,424,637.7Z" transform="translate(-224.08 -110.29)"/><path class="cls-2" d="M415.67,636.73c-1.67,0-2.09,1.25-2.58,2.3a40.55,40.55,0,0,0-2.94,11.19l-.06.4a4.92,4.92,0,0,0,.87.31c.65.16,1.31.29,2,.43a34,34,0,0,1,3.2-12.11C416.58,638.38,416.8,637.51,415.67,636.73Z" transform="translate(-224.08 -110.29)"/></svg>