<svg id="Layer_1" data-name="Layer 1" xmlns="http://www.w3.org/2000/svg" viewBox="0 0 916.74 547.6"><defs><style>.cls-1{fill:#ecc68b;}.cls-2{fill:#47340e;}.cls-3{fill:#e0a953;}</style></defs><path class="cls-1" d="M925.94,659.35H912.05c-1.16-.18-2.32-.38-3.48-.54-2.84-.37-5.68-.67-8.51-1.08-2.62-.39-4-2-4.45-4.6a18.84,18.84,0,0,1,.36-7.7c1.77-7.37,5.46-13.32,12.62-16.59,2-.92,4-1.81,6.22-2.78.29-.78.64-1.63.93-2.5a78.1,78.1,0,0,0,3.44-21.27,107.75,107.75,0,0,0-.55-11.34c-.15-2.21-.29-4.43-.65-6.61-.82-4.92-1.66-9.84-2.71-14.71a63.34,63.34,0,0,0-3.63-12.41c-.57,1.85-1,3.25-1.43,4.62-3.6,10.51-8,20.69-12.58,30.82-1.55,3.46-3.1,6.92-4.7,10.36-1.91,4.11-3.8,8.24-5.85,12.28-1.93,3.79-4.12,7.44-6.08,11.22a187.35,187.35,0,0,1-13.18,22.17,50.49,50.49,0,0,1-5.94,6.56,6.65,6.65,0,0,1-3,1.32c-5.32,1.36-10.81,1.4-16.23,1.6-5.06.19-10.15-.31-15.23-.46A56.25,56.25,0,0,1,814,655.84c-1.51-.41-3-.73-4.59-1-3.94-.77-7-3.75-6.91-8.09A24.69,24.69,0,0,1,807.61,632c3.46-4.64,7.9-7.9,14.09-8.32a18.63,18.63,0,0,0,9.68-3.83c3.13-2.27,5.34-5.36,7.78-8.24a78.25,78.25,0,0,0,8.62-13.23c2.05-3.74,4-7.56,4.62-11.83a76.1,76.1,0,0,0,.7-10.77,29.37,29.37,0,0,0-4.72-15.19,54.51,54.51,0,0,0-4.91-6.72c-3.1-3.66-6.33-7.22-9.57-10.77-6-6.56-12-13.11-18-19.6-2.9-3.11-6-6-8.95-9.12-3.74-4-7.4-8-11.06-12a3.36,3.36,0,0,0-4-1c-3.49,1.23-7,2.35-10.49,3.6a203.23,203.23,0,0,1-27.91,8.31c-6.69,1.37-13.31,3.1-20.19,3.48-6,.32-11.95,1-17.92,1.51-4.32.41-8.66.71-12.92,1.48-5.63,1-11.18,2.53-16.8,3.66a118.47,118.47,0,0,1-15,2.53,99,99,0,0,1-26.48-1.83,60.65,60.65,0,0,0-8-.83c-4.24-.26-8.49-.37-12.73-.62-2.49-.14-5-.43-7.45-.64-3.95-.33-7.9-.67-11.86-1-3.22-.23-6.47-.19-9.67-.6A117.85,117.85,0,0,1,573.92,516c-4.5-1.42-9-2.74-13.52-4.18-4.67-1.49-9.31-3.08-14-4.62-1.11-.37-2.24-.72-3.63-1.16-.29,1.36-.59,2.41-.74,3.48-.35,2.46-.61,4.94-1,7.41-.58,4.11-1.27,8.21-1.8,12.33-.84,6.41-1.52,12.83-2.37,19.23-.82,6.22-1.73,12.43-2.68,18.64-1.29,8.36-3.29,16.5-7.52,24-2,3.54-3.88,7.16-5.91,10.68-3.47,6-6.84,12.08-10.56,17.93A283.63,283.63,0,0,1,491.84,645a12.1,12.1,0,0,1-6.67,4.64,51.52,51.52,0,0,1-6.23,1.32q-8.52,1-17.07,1.65c-5.89.46-11.79.86-17.69,1.11-7.2.3-14.41.61-21.62.52-4,0-8-.94-12.07-1.43a4.2,4.2,0,0,1-3.69-3.26,17.72,17.72,0,0,1,2.34-16.4,24.33,24.33,0,0,1,12.43-8.89,17,17,0,0,0,8.3-6.17A45.13,45.13,0,0,0,437,603.2,135.19,135.19,0,0,0,441.3,584c1.18-8.41,2.5-16.81,2.39-25.34,0-.83.1-1.67.12-2.5.12-5.63.49-11.28.29-16.9s-.83-11.22-1.57-16.8c-.78-5.94-1.41-12-3-17.73-2.63-9.33-5.87-18.51-9.1-27.66a248.37,248.37,0,0,0-11.62-27.61c-1.64-3.32-3.12-6.71-4.61-10.1-2.69-6.09-5.38-12.19-8-18.33-3.11-7.42-6.35-14.8-9.07-22.37-3.43-9.57-6.54-19.26-9.5-29-2.41-8-4.49-16-6.54-24.11-1.64-6.45-2.93-13-4.52-19.45C374.36,317,372.16,308,369.66,299c-2.22-8-4.38-16.07-7.74-23.73-3.19-7.28-7.21-13.93-13.68-18.86-4.28-3.26-8.53-6.49-13.71-8.28-4.81-1.67-9.59-3.56-14.74-3.69q-18.17-.44-36.34-.57a85.31,85.31,0,0,1-21.62-3,21.28,21.28,0,0,1-4.35-1.75,26.69,26.69,0,0,1-12.21-13.18,5,5,0,0,0-1.73-2.37c-4.21-2.34-7.48-5.75-10.68-9.21a39.35,39.35,0,0,1-9.4-16.47c-1.34-4.94-.38-7.77,3.75-10.87a65.29,65.29,0,0,1,14.25-8c4.1-1.7,8.16-3.51,12.25-5.23,3.67-1.54,7.35-3,11-4.53,4.45-1.82,9-3.42,13.34-5.5a25,25,0,0,0,12.51-13.19,87.87,87.87,0,0,1,5-9.28,20.46,20.46,0,0,1,6.26-6.6c6.11-4.16,12.17-8.41,18.47-12.27,15.39-9.45,35.35-13.86,52.8-8,11.72,3.92,22.49,11,32.89,17.54,5.86,3.69,11.47,7.8,17,12,6.19,4.68,12.17,9.64,18.23,14.49,3.31,2.66,6.63,5.32,9.89,8.05,4.39,3.68,8.57,7.62,13.11,11.09,5.29,4,10.85,7.72,16.31,11.52,7.23,5,15,9.09,22.85,13.12a237.64,237.64,0,0,0,26.72,11.59c4.78,1.75,9.47,3.78,14.33,5.25,10,3,20,5.91,30.24,8.24s20.65,4.19,31,5.91c4.92.81,9.88,1.3,14.83,1.88,6,.72,12.1,1.39,18.15,2.05,4.13.45,8.26.83,12.38,1.3s8.05,1.07,12.1,1.43q10.74,1,21.52,1.67c7.27.47,14.56.78,21.84,1.17.47,0,.93.06,1.39.09,4.32.33,8.64.68,13,1,1.11.08,2.23,0,3.33.08l16,1.05c.65,0,1.3,0,1.94.08l16,1c2.76.17,5.53.31,8.29.51,2.11.16,4.22.42,6.34.59,5.06.43,10.12.79,15.17,1.26s9.91,1,14.86,1.52c4,.42,7.94.6,11.83,1.3a193.37,193.37,0,0,1,19,4.09c9.89,2.84,20,4.45,30,6.77,12.25,2.84,24.57,5.35,36.86,8,2.35.51,4.69,1.07,7.06,1.46,11.94,2,23.86,4.21,35.58,7.23,28.51,7.35,58.53,9.34,87.73,12.29l93.9,9.47c5.56.57,18.29,3.26,14,11.71-5.58,11-19.2,18.36-29.83,23.74a147.81,147.81,0,0,1-37.54,12.75c-23.41,4.71-47.23,4.41-70.94,3.09-26.07-1.45-51.34-6.26-76.35-13.4a12.52,12.52,0,0,0-2.5-.18,12.8,12.8,0,0,0,.56,1.29c6,10.16,9.44,21.26,11.61,32.78.91,4.81,1.41,9.71,2.57,14.46a74.76,74.76,0,0,1,1.73,16.49c.14,8.12-.26,16.26-.48,24.39,0,1.75-.29,3.49-.42,5.24-.23,3.31-.44,6.63-.67,9.94-.12,1.66-.28,3.31-.42,5-.23,2.67-.59,5.33-.65,8-.11,5.18-.07,10.37-.05,15.56A75.93,75.93,0,0,0,937.46,488c1.9,8.32,5.9,15.74,10.33,22.94,4,6.42,9.08,11.89,14.43,17.14a67.37,67.37,0,0,1,8,9.18c2.3,3.25,2.77,7,2.78,10.81,0,1.74-.25,3.49-.41,5.23-.27,2.94-.41,5.9-.87,8.81-1.1,6.93-2.34,13.84-3.55,20.75-1.39,7.92-2.71,15.85-4.25,23.74-1.5,7.71-3.23,15.38-4.88,23.06-1.24,5.78-2.41,11.58-3.81,17.33s-4.82,9.5-11,10.17c-5.32.57-10.64,1.09-16,1.66A22,22,0,0,0,925.94,659.35Z" transform="translate(-222.89 -111.75)"/><path class="cls-2" d="M244.28,198.83c2.32-6.07,2.71-12.39,2.81-18.76,0-1.61-.8-2.3-2.42-2.42L241.46,179a65.06,65.06,0,0,0-14.25,8c-4.13,3.1-5.09,5.93-3.75,10.87a37.05,37.05,0,0,0,5.23,11.24c1.08-.12,2.15-.28,3.21-.47C237.72,207.54,242.07,204.62,244.28,198.83Z" transform="translate(-222.89 -111.75)"/><path class="cls-3" d="M361.53,125.4c-6.69,11.2-9.36,23.61-10.56,36.42a94.34,94.34,0,0,0,0,16.89q.78,9,1.89,17.91c.52,4.21,1.23,8.4,2,12.57a22.54,22.54,0,0,0,5,10.67c3.11,3.64,7.11,4.39,11.11,1.71a25.82,25.82,0,0,0,5.31-4.81,185.27,185.27,0,0,0,14.7-20.5c3.67-5.78,7.41-11.51,12.37-16.32a67.85,67.85,0,0,0,13.22-17.7c3.16-6.13,5.4-12.4,5.23-19.13-5.18-3.9-10.45-7.73-15.93-11.19-10.4-6.53-21.17-13.62-32.89-17.54-.69-.23-1.39-.42-2.09-.62C366.92,116.9,364.11,121.08,361.53,125.4Z" transform="translate(-222.89 -111.75)"/><path class="cls-2" d="M432,647.27c-1.18-6.42.57-12,5.77-16.07a23.73,23.73,0,0,1,11.78-5.2,11.06,11.06,0,0,0,6.59-3.24,29.79,29.79,0,0,0,7.12-10.15q3-7.59,5.83-15.26A71.32,71.32,0,0,0,473.18,579c.6-6.72.87-13.47,1.09-20.21.34-10.27.11-20.54-.54-30.79-.26-4.15-.52-8.32-1.18-12.41-1.08-6.65-2.42-13.26-3.79-19.85-.73-3.52-1.76-7-2.65-10.46-.33-1.3-1-1.93-2.54-1.38-.76,1.47-.19,2.68.15,3.92a214.57,214.57,0,0,1,7.65,57.79c0,9.62-.63,19.23-.91,28.84a71.69,71.69,0,0,1-2.13,14.5c-1.79,7.49-4.75,14.56-7.61,21.68a29.8,29.8,0,0,1-6.44,9.6,8.13,8.13,0,0,1-5,2.7c-4.28.44-7.91,2.39-11.49,4.56-5.78,3.51-8.5,8.77-8.95,15.37-.27,4,.85,7.72,2.33,11.32l3-.07c-.05-.1-.11-.18-.15-.28A28.81,28.81,0,0,1,432,647.27Z" transform="translate(-222.89 -111.75)"/><path class="cls-2" d="M894.89,538c-6.71-4.59-13.45-9.15-20.12-13.81-8-5.56-15.76-11.35-23.81-16.76a72.06,72.06,0,0,0-12.14-6.61c-9.53-4-19.52-4.51-29.68-3a78.38,78.38,0,0,0-14.64,3.64,3.91,3.91,0,0,1,1.38,1l1.16,1.26c1.05-.33,2.11-.64,3.19-.9A87,87,0,0,1,819.1,500c10.7-.23,20.41,3.29,29.14,9.19,13.79,9.3,27.34,19,41,28.44A78.72,78.72,0,0,1,904,550.23a20.49,20.49,0,0,1,3,4.59,37.36,37.36,0,0,1,2.86,7.94c.11-.31.23-.61.34-.92.41-1.2.77-2.44,1.23-4A25.82,25.82,0,0,0,906,548,65.31,65.31,0,0,0,894.89,538Z" transform="translate(-222.89 -111.75)"/><path class="cls-2" d="M267.33,231.67c6.12.7,12.18.09,18.21-.78a44,44,0,0,0,6.89-2,1.44,1.44,0,0,0,1.12-1.91c-.34-1-1.19-1.09-2.08-.9a17.18,17.18,0,0,0-1.85.57,37.06,37.06,0,0,1-12.78,2.11c-4.52,0-9-.06-13.56-.09a49.48,49.48,0,0,1-13.64-2c-1.61-.47-3.2-1-4.78-1.59.15.28.29.57.41.84a28.26,28.26,0,0,0,1.49,2.9A45.22,45.22,0,0,0,256.83,231C260.32,231.28,263.85,231.28,267.33,231.67Z" transform="translate(-222.89 -111.75)"/><path class="cls-2" d="M310.11,163.3a7.25,7.25,0,0,0-2.9,2.74c-1.44,2.27-1.41,4.9-1.24,7.49a4.32,4.32,0,0,0,3.5,4.36,4.1,4.1,0,0,0,4.69-2.53,20,20,0,0,0,1.17-6C315.5,165.36,314.48,161.45,310.11,163.3Z" transform="translate(-222.89 -111.75)"/><path class="cls-2" d="M384.94,269.93a12.86,12.86,0,0,0,2.5-1.12c-1.13-2.48-2.76-1.78-4.11-1.59-5.22.73-10.42,1.32-15.71.45a58.91,58.91,0,0,1-11.13-2.49c.82,1.2,1.57,2.45,2.29,3.72a58.6,58.6,0,0,0,12.1,2A51.9,51.9,0,0,0,384.94,269.93Z" transform="translate(-222.89 -111.75)"/><path class="cls-2" d="M475.68,212.06c1.44,1,1.9,1.05,2.54-.12a8.58,8.58,0,0,0,1-2.85c.5-3.47.92-7,1.28-10.44.32-3,.6-6,.79-9.07-.26-.18-.54-.34-.8-.53-.63-.43-1.26-.86-1.88-1.3-.23,4.66-.74,9.3-1.37,13.92C476.76,205.13,476.2,208.58,475.68,212.06Z" transform="translate(-222.89 -111.75)"/><path class="cls-2" d="M916,646.34c-.21-.47-.39-1.13-.76-1.29a1.54,1.54,0,0,0-1.45.3,5.84,5.84,0,0,0-1.06,2.2c-.92,3.82-1.8,7.66-2.67,11.5l2,.3h.75a87,87,0,0,1,3.13-12.48C916,646.7,916.09,646.47,916,646.34Z" transform="translate(-222.89 -111.75)"/><path class="cls-2" d="M908.35,644.3c-1.59-1.41-2.25-1.42-2.88.22a51.82,51.82,0,0,0-2.3,7.36c-.45,2-.85,4.06-1.21,6.09l2.95.39c.7-3.32,1.4-6.64,2.14-10C907.37,647,907.92,645.63,908.35,644.3Z" transform="translate(-222.89 -111.75)"/><path class="cls-2" d="M819.54,642.35c.36-1.17.36-1.94-1-2.53-1.56.59-1.92,1.93-2.27,3.11-1.1,3.61-2.12,7.24-3,10.9-.14.57-.23,1.16-.33,1.74l1.13.27c.54.15,1.08.26,1.63.39,0-.21.06-.42.11-.62Q817.52,648.93,819.54,642.35Z" transform="translate(-222.89 -111.75)"/><path class="cls-2" d="M828.87,641.83c-2.2-.75-2.82.59-3.38,1.85A72,72,0,0,0,821,657.22q1.46.18,2.91.3a60.11,60.11,0,0,1,4.66-13.77A6.37,6.37,0,0,0,828.87,641.83Z" transform="translate(-222.89 -111.75)"/><path class="cls-2" d="M447.75,640.37c-2-.55-2.25-.55-2.83.39a8.51,8.51,0,0,0-1,2.27,76.82,76.82,0,0,0-2.09,10.82l2.34-.09.7,0c.33-2.39.68-4.78,1.12-7.15C446.37,644.53,447.12,642.56,447.75,640.37Z" transform="translate(-222.89 -111.75)"/><path class="cls-2" d="M454.79,639.75c-1.91,1.32-2.09,1.41-2.93,4.33a69.65,69.65,0,0,0-2.34,9.39l3-.16a42.71,42.71,0,0,1,3.67-12.23Z" transform="translate(-222.89 -111.75)"/><path class="cls-2" d="M422.07,638.69a8.89,8.89,0,0,0-1.37,2.15c-1.14,4.32-2.2,8.66-3.27,13,.87.12,1.74.22,2.61.29,1.22-4.78,2.42-9.58,3.66-14.5Z" transform="translate(-222.89 -111.75)"/><path class="cls-2" d="M415.29,638.73c-1.59.19-2,1.41-2.49,2.47a41.66,41.66,0,0,0-2.86,10.93c0,.18-.05.37-.08.56a5.26,5.26,0,0,0,.63.16c.75.09,1.5.21,2.26.32a33.53,33.53,0,0,1,3.21-12C416.43,640.26,416.54,639.39,415.29,638.73Z" transform="translate(-222.89 -111.75)"/><path class="cls-2" d="M958.23,595.17c1.45-3.89,2.91-7.77,4.27-11.69a11.27,11.27,0,0,0,.27-2.77c-1.5-.54-2,.08-2.42,1.06-1.61,4.22-3.23,8.44-4.82,12.67-.32.86-.58,1.8.42,2.53C957.45,597.34,957.84,596.2,958.23,595.17Z" transform="translate(-222.89 -111.75)"/><path class="cls-2" d="M916.84,325.73c1.25,4.47,3.66,8.34,5.44,12.46a7.52,7.52,0,0,1,1.83.16l1.66.46c-2-4.22-3.94-8.17-5.83-12.11C919.47,325.72,918.91,324.93,916.84,325.73Z" transform="translate(-222.89 -111.75)"/></svg>